PathFileType  4	(X/Y/Z) C:\Users\antoi\Documents\MyRepositories\mobilecap\ResultsAnalysis
DataRate	CameraRate	NumFrames	NumMarkers	Units	OrigDataRate	OrigDataStartFrame	OrigNumFrames
100.0	100.0	7	51	mm	100.0	18	136
Frame#	Time	r_knee			r_shank_antsup			r_ankle			r_calc			r_5meta			r_toe			L_knee			L_shank_antsup			L_ankle			L_calc			L_5meta			L_toe			r_sh2			r_sh3			r_sh4			L_sh2			L_sh3			r_thigh1			r_thigh2			r_thigh3			r_thigh4			r_thigh5			L_thigh1			L_thigh2			L_thigh3			L_thigh4			r.ASIS			r.PSIS			L.ASIS			L.PSIS			C7			R_Shoulder			L_Shoulder			R_Sternum			L_Sternum			R_humerus			R_elbow_med			R_elbow_lat			R_forearm			R_wrist_radius			R_wrist_ulna			L_humerus			L_elbow_med			L_elbow_lat			L_forearm			L_wrist_radius			L_wrist_ulna			R_HJC			L_HJC			R_HJC_reg			L_HJC_reg			
		X1	Y1	Z1	X2	Y2	Z2	X3	Y3	Z3	X4	Y4	Z4	X5	Y5	Z5	X6	Y6	Z6	X7	Y7	Z7	X8	Y8	Z8	X9	Y9	Z9	X10	Y10	Z10	X11	Y11	Z11	X12	Y12	Z12	X13	Y13	Z13	X14	Y14	Z14	X15	Y15	Z15	X16	Y16	Z16	X17	Y17	Z17	X18	Y18	Z18	X19	Y19	Z19	X20	Y20	Z20	X21	Y21	Z21	X22	Y22	Z22	X23	Y23	Z23	X24	Y24	Z24	X25	Y25	Z25	X26	Y26	Z26	X27	Y27	Z27	X28	Y28	Z28	X29	Y29	Z29	X30	Y30	Z30	X31	Y31	Z31	X32	Y32	Z32	X33	Y33	Z33	X34	Y34	Z34	X35	Y35	Z35	X36	Y36	Z36	X37	Y37	Z37	X38	Y38	Z38	X39	Y39	Z39	X40	Y40	Z40	X41	Y41	Z41	X42	Y42	Z42	X43	Y43	Z43	X44	Y44	Z44	X45	Y45	Z45	X46	Y46	Z46	X47	Y47	Z47	X48	Y48	Z48	X49	Y49	Z49	X50	Y50	Z50	X51	Y51	Z51	

18	0.17000000	104.35796	547.37799	-89.14199	144.61571	421.81612	-108.94302	70.99099	89.94008	-145.88927	11.05798	64.51325	-204.09906	204.04089	34.94641	-100.61739	244.85939	63.98007	-169.48241	-14.54945	523.93039	-438.92548	-47.37032	418.33956	-421.02403	-367.83473	291.57564	-377.19689	-407.54105	340.17760	-315.66780	-393.69098	134.49219	-401.31131	-356.31486	114.35030	-337.25883	153.24411	311.48333	-138.12519	82.49074	404.83483	-66.49708	96.14199	289.16334	-80.30805	-102.07997	484.76828	-450.35711	-186.30606	396.99580	-453.18252	158.22541	794.18126	-88.11615	176.44631	684.78796	-111.13848	152.29158	646.93853	-58.37273	74.40147	763.56729	-16.92697	98.06779	652.78259	-45.24270	46.42067	772.47733	-443.43569	69.44983	636.99313	-450.05392	-61.73126	752.34560	-445.26318	-40.84044	616.58974	-446.78473	77.20998	1047.73928	-99.38562	-139.14620	1065.28721	-157.72817	44.96126	1022.30942	-362.43590	-152.62918	1059.70222	-253.22799	-100.85494	1567.18980	-194.32401	-33.35415	1477.85285	-16.33247	-34.66664	1528.92033	-376.18863	37.94285	1485.65551	-177.36440	34.83982	1488.02230	-225.33841	-33.07029	1301.70964	42.09103	-125.04001	1091.39748	-21.75321	-106.97612	1106.64098	58.01999	-16.11773	957.40708	61.70248	13.71545	838.89676	63.79898	-20.80396	828.32402	88.15015	-29.76766	1360.62309	-468.30405	-113.66821	1149.76334	-440.81108	-74.44070	1167.45670	-510.67205	21.66135	1029.56268	-490.45076	53.86409	915.76495	-514.84171	24.93768	915.63217	-554.38657	-4.66972	961.73435	-116.66491	-29.24816	932.22565	-326.57870	5.79730	957.02177	-122.27495	-18.72478	946.86127	-295.98773	
19	0.18000000	108.15533	547.69624	-87.98454	147.14021	421.69483	-107.86134	71.06443	90.10541	-145.64391	11.12222	64.97736	-203.85239	204.01848	34.68495	-100.41146	244.98197	63.88170	-169.19163	12.00245	528.15765	-438.76874	-19.35501	422.59619	-420.53728	-339.18760	293.38864	-375.41728	-381.49959	340.68916	-314.76457	-358.32648	135.08139	-398.74304	-320.33589	117.06920	-334.44194	154.90385	311.35518	-137.23458	84.84746	405.20363	-65.54825	97.50082	289.44229	-79.47241	-74.42088	488.66601	-449.72992	-158.33224	400.47387	-452.25738	166.42123	793.59092	-86.70880	182.84934	683.85816	-109.72056	158.03375	646.42022	-56.96509	82.10350	764.37039	-15.58889	104.01383	653.33635	-43.90434	64.56914	777.73371	-442.98671	91.88177	643.06613	-449.91607	-42.72520	754.71106	-444.27343	-17.60119	619.50255	-446.18503	89.12083	1049.50813	-98.34897	-127.12709	1068.10119	-155.75584	57.35055	1025.78258	-361.35058	-140.70205	1062.60227	-251.30106	-87.48586	1569.98897	-192.73089	-18.50627	1480.81483	-15.26628	-23.07054	1531.46124	-375.17923	51.24029	1488.16047	-177.01701	47.77236	1490.46093	-224.95426	-17.24678	1304.87848	43.43742	-109.54435	1094.05668	-18.32400	-90.26843	1109.61375	61.11288	1.79234	960.92585	63.16559	32.45316	842.73366	65.02683	-1.52063	831.89186	89.89839	-20.34330	1363.07859	-467.56055	-105.70842	1153.02350	-439.63009	-67.07165	1170.61565	-509.90134	26.50783	1030.96997	-491.60853	56.42741	916.64761	-517.19629	27.35413	917.67062	-556.59897	7.37228	963.82007	-115.71393	-17.45982	935.58789	-325.77570	17.58209	959.94466	-121.28641	-7.06597	949.95579	-294.81232	
20	0.19000000	111.67003	548.05136	-86.85228	149.46599	421.64798	-106.77351	71.11524	90.31176	-145.42591	11.18365	65.44341	-203.63854	203.99139	34.42883	-100.21033	245.09994	63.83165	-168.89463	38.17614	532.68820	-438.41702	8.56765	427.01071	-419.81310	-309.93749	293.73502	-373.61068	-354.81018	339.67962	-313.76879	-322.20588	134.41971	-396.02186	-283.52269	118.65153	-331.53438	156.43247	311.32561	-136.27652	86.95544	405.65527	-64.67499	98.66494	289.80079	-78.67769	-47.17929	492.36544	-448.96345	-130.26879	403.28727	-451.20378	174.35932	792.87950	-85.16128	188.92349	682.86251	-108.21322	163.45435	645.84172	-55.51780	89.52240	765.06264	-14.23601	109.40447	653.75131	-42.67115	82.66364	783.23052	-442.39306	114.15038	649.47208	-449.49591	-23.86017	757.34560	-443.50022	5.53378	622.74972	-445.80805	100.78887	1051.27025	-97.04487	-115.25657	1070.84146	-153.99806	69.76754	1029.21368	-360.04330	-128.76487	1065.61226	-249.72413	-74.19950	1572.71304	-191.20218	-3.72305	1483.81042	-14.27481	-11.59779	1533.94711	-374.20211	64.43528	1490.63117	-176.73485	60.58582	1492.83153	-224.62733	-1.44834	1308.11997	44.75958	-93.93697	1096.72850	-14.90682	-73.49961	1112.64815	64.18187	19.75864	964.52889	64.64510	51.27305	846.65193	66.24080	17.91371	835.56862	91.66915	-11.26058	1365.56699	-466.94861	-97.99303	1156.27499	-438.40847	-60.11742	1173.79611	-509.17833	31.32846	1032.64320	-492.79208	58.99275	917.90143	-519.47577	29.74338	919.92272	-558.68941	19.10620	965.89332	-114.71598	-5.59873	938.94517	-324.96196	29.16146	962.56521	-120.30759	4.69619	953.08787	-293.72294	
21	0.20000000	114.95533	548.43870	-85.77430	151.59347	421.67237	-105.68561	71.14954	90.56256	-145.25334	11.23483	65.87291	-203.46861	203.96713	34.19483	-100.02960	245.20367	63.81171	-168.61444	63.92984	537.40671	-437.87240	36.35270	431.44259	-418.82642	-280.10861	292.64708	-371.74555	-327.36659	337.14758	-312.55131	-285.54926	132.67429	-393.27104	-246.11559	119.14165	-328.68950	157.81012	311.36257	-135.25232	88.77760	406.18462	-63.90552	99.58886	290.23696	-77.94087	-20.38783	495.68883	-448.14756	-102.10366	405.25838	-450.04814	182.10295	792.08585	-83.56751	194.73685	681.83360	-106.73248	168.63809	645.24883	-54.11852	96.73329	765.66862	-12.91518	114.32620	654.03009	-41.58969	100.78395	788.90372	-441.62257	136.26585	656.14404	-448.75599	-5.07043	760.17318	-442.95807	28.52858	626.29976	-445.68786	112.27191	1053.01631	-95.45381	-103.53029	1073.45958	-152.45617	82.19433	1032.55691	-358.49178	-116.82601	1068.63083	-248.45842	-60.97973	1575.32608	-189.72922	10.99887	1486.80177	-13.35044	-0.20681	1536.34246	-373.23978	77.54282	1493.03774	-176.49377	73.31698	1495.10949	-224.33361	14.32957	1311.39163	46.05809	-78.22708	1099.38619	-11.52351	-56.67467	1115.69031	67.19891	37.76235	968.18701	66.16975	70.18013	850.62085	67.46092	37.47700	839.30686	93.45887	-2.47827	1368.07115	-466.45750	-90.50090	1159.50877	-437.16689	-53.53843	1176.97847	-508.49449	36.16969	1034.54482	-494.01238	61.57849	919.45983	-521.66476	32.09229	922.32851	-560.65384	30.58017	967.93061	-113.64182	6.36128	942.23062	-324.09943	40.57356	964.91348	-119.25844	16.56531	956.18636	-292.63677	
22	0.21000000	118.06561	548.85245	-84.77369	153.55053	421.76300	-104.61506	71.17850	90.85948	-145.12908	11.26407	66.23941	-203.33913	203.95180	33.99268	-99.87833	245.28988	63.80835	-168.36385	89.21085	542.21765	-437.13640	63.94706	435.79436	-417.57286	-249.73957	290.20921	-369.78821	-299.17783	333.09938	-311.02609	-248.38038	129.99711	-390.61775	-208.18056	118.62164	-326.02927	159.04430	311.43861	-134.19008	90.33913	406.77807	-63.24288	100.29150	290.74006	-77.26740	5.92615	498.53821	-447.33162	-73.85660	406.33163	-448.79444	189.69561	791.23744	-81.99924	200.38641	680.80003	-105.34721	173.64383	644.67076	-52.82686	103.78584	766.20965	-11.67265	118.91681	654.20114	-40.67074	118.94942	794.67685	-440.66841	158.20409	663.01330	-447.68291	13.68844	763.11735	-442.65602	51.33782	630.11341	-445.80397	123.60233	1054.71766	-93.58718	-91.95275	1075.90274	-151.13711	94.65105	1035.77789	-356.69662	-104.90734	1071.54864	-247.46867	-47.81050	1577.79327	-188.30856	25.65786	1489.74450	-12.48866	11.14142	1538.60716	-372.28461	90.58157	1495.34566	-176.27387	86.00251	1497.26755	-224.05472	30.08893	1314.64581	47.33396	-62.43143	1101.99822	-8.18910	-39.80139	1118.68325	70.14676	55.78707	971.86131	67.75929	89.17720	854.60309	68.70668	57.13936	843.05509	95.26466	6.05145	1370.55640	-466.07159	-83.20366	1162.70199	-435.93318	-47.27989	1180.13297	-507.84695	41.04650	1036.61653	-495.27313	64.20326	921.24244	-523.76237	34.39728	924.82769	-562.49721	41.83732	969.89202	-112.48684	18.45247	945.38496	-323.17768	51.85782	967.03053	-118.08563	28.53945	959.18564	-291.48339	
23	0.22000000	121.05071	549.28347	-83.86254	155.38568	421.90844	-103.59056	71.21654	91.20080	-145.04354	11.25709	66.53921	-203.23200	203.94772	33.82432	-99.75892	245.36321	63.81305	-168.14672	113.96127	547.04487	-436.21004	91.29473	440.00951	-416.06981	-218.87556	286.52708	-367.71978	-270.30857	327.54768	-309.15895	-210.61450	126.51492	-388.17177	-169.67515	117.19568	-323.64201	160.17115	311.53706	-133.13940	91.72245	407.41638	-62.67276	100.85320	291.29127	-76.65566	31.73794	500.89422	-446.51163	-45.57896	406.56375	-447.43153	197.15947	790.34049	-80.50214	205.98390	679.77758	-104.07244	178.49310	644.10647	-51.67301	110.70795	766.69732	-10.54272	123.34046	654.31274	-39.89138	137.11348	800.46321	-439.54682	179.90892	669.99971	-446.28652	32.42231	766.10947	-442.59920	73.91495	634.13097	-446.09227	134.77954	1056.32708	-91.48326	-80.52673	1078.11829	-150.04601	107.16642	1038.83988	-354.67196	-93.03461	1074.26258	-246.72320	-34.67930	1580.08348	-186.94205	40.24534	1492.59033	-11.68688	22.47825	1540.70026	-371.33757	103.56804	1497.51735	-176.06163	98.66615	1499.27370	-223.77919	45.82928	1317.83135	48.58933	-46.57185	1104.52865	-4.91180	-22.89540	1121.57524	73.02058	73.82122	975.50449	69.41999	108.25695	858.55469	69.99468	76.86038	846.76364	97.08529	14.38613	1372.97597	-465.76889	-76.07129	1165.82372	-434.73452	-41.27555	1183.22345	-507.23620	45.94650	1038.78324	-496.56550	66.88536	923.16139	-525.77848	36.66923	927.35931	-564.22718	52.90607	971.72469	-111.26230	30.69383	948.35118	-322.20312	63.04186	968.94997	-116.76496	40.59861	962.02553	-290.20828	
24	0.23000000	123.95273	549.71760	-83.04193	157.15264	422.08920	-102.64300	71.27686	91.57934	-144.98136	11.20436	66.79099	-203.12099	203.95374	33.68518	-99.66814	245.43375	63.81965	-167.96004	138.12659	551.82719	-435.09393	118.33657	444.06049	-414.35436	-187.55954	281.70345	-365.54439	-240.82303	320.51434	-306.96129	-172.14117	122.33165	-386.01252	-130.50946	114.98333	-321.58980	161.24376	311.65194	-132.15358	93.03595	408.07809	-62.17397	101.38373	291.86770	-76.10039	57.01950	502.79552	-445.63533	-17.34663	406.08785	-445.94641	204.50570	789.38418	-79.10135	211.63523	678.76672	-102.88501	183.17492	643.52466	-50.66835	117.51476	767.13246	-9.54327	127.75241	654.41840	-39.20863	155.17650	806.17330	-438.28734	201.30146	677.00495	-444.59306	51.09682	769.10097	-442.78299	96.21273	638.27359	-446.46794	145.77629	1057.78332	-89.20104	-69.24452	1080.05962	-149.18031	119.74989	1041.69899	-352.45154	-81.22630	1076.68666	-246.18824	-21.58078	1582.17061	-185.63605	54.74670	1495.29065	-10.94270	33.82442	1542.58355	-370.40542	116.51003	1499.51422	-175.85072	111.31149	1501.09123	-223.50230	61.54661	1320.89622	49.82614	-30.67358	1106.93829	-1.69324	-5.97870	1124.32248	75.82514	91.85893	979.06427	71.14411	127.39824	862.42631	71.33701	96.59239	850.38768	98.92177	22.59340	1375.27737	-465.52199	-69.07426	1168.83981	-433.59140	-35.45214	1186.21098	-506.66215	50.83999	1040.96016	-497.86821	69.64432	925.12983	-527.72824	38.93693	929.86146	-565.84829	63.80132	973.36822	-109.99186	43.07646	951.07472	-321.19385	74.13240	970.68637	-115.30164	52.69867	964.64866	-288.78574	
